<svg width="131" height="15" viewBox="0 0 131 15" fill="none" xmlns="http://www.w3.org/2000/svg">
<path d="M2.93688 14C2.47021 14 1.92354 14.0267 1.29688 14.08C0.670208 14.1333 0.256875 14.1733 0.0568751 14.2L0.196875 12.88C0.770208 12.7733 1.15688 12.6133 1.35688 12.4C1.55688 12.1733 1.65688 11.8 1.65688 11.28L1.67688 3.44C1.67688 3.06667 1.63021 2.80667 1.53688 2.66C1.44354 2.51333 1.27688 2.44 1.03688 2.44C0.903542 2.44 0.770208 2.44667 0.636875 2.46C0.503542 2.47333 0.410208 2.48 0.356875 2.48L0.216875 2.32L0.396875 1.12C0.610208 1.12 0.996875 1.12667 1.55688 1.14C2.13021 1.15333 2.66354 1.16 3.15688 1.16C3.66354 1.16 4.23021 1.14667 4.85688 1.12C5.48354 1.09333 5.92354 1.07333 6.17688 1.06C7.55021 1.06 8.59688 1.32667 9.31688 1.86C10.0369 2.39333 10.3969 3.16 10.3969 4.16C10.3969 4.82667 10.2035 5.42 9.81688 5.94C9.44354 6.44667 8.91688 6.87333 8.23688 7.22C9.10354 7.44667 9.79021 7.80667 10.2969 8.3C10.8169 8.79333 11.0769 9.42667 11.0769 10.2C11.0769 10.9867 10.8569 11.6867 10.4169 12.3C9.99021 12.9 9.38354 13.3667 8.59688 13.7C7.82354 14.0333 6.92354 14.2 5.89688 14.2C5.73688 14.2 5.51688 14.1867 5.23688 14.16C4.95688 14.1333 4.74354 14.1133 4.59688 14.1C4.42354 14.0867 4.15688 14.0667 3.79688 14.04C3.43688 14.0133 3.15021 14 2.93688 14ZM4.31688 6.64C4.47688 6.65333 4.79688 6.68667 5.27688 6.74C5.75688 6.79333 6.07688 6.82 6.23688 6.82C6.23688 6.84667 6.36354 6.78 6.61688 6.62C6.88354 6.44667 7.11688 6.2 7.31688 5.88C7.53021 5.56 7.63688 5.15333 7.63688 4.66C7.63688 3.98 7.41021 3.48 6.95688 3.16C6.50354 2.84 5.79688 2.68 4.83688 2.68C4.70354 2.68 4.61021 2.70667 4.55688 2.76C4.51688 2.81333 4.49021 2.91333 4.47688 3.06C4.39688 4.14 4.34354 5.33333 4.31688 6.64ZM4.19688 11.34C4.19688 11.7667 4.34354 12.0733 4.63688 12.26C4.93021 12.4333 5.41688 12.52 6.09688 12.52C6.75021 12.52 7.26354 12.34 7.63688 11.98C8.01021 11.62 8.19688 11.1267 8.19688 10.5C8.19688 9.95333 8.01688 9.5 7.65688 9.14C7.31021 8.76667 6.80354 8.50667 6.13688 8.36L4.27688 8.38L4.19688 11.34ZM18.4559 14L18.5559 12.82C19.0093 12.78 19.3359 12.74 19.5359 12.7C19.7493 12.6467 19.8959 12.58 19.9759 12.5C20.0559 12.4067 20.0959 12.2733 20.0959 12.1C20.0959 11.94 20.0626 11.7067 19.9959 11.4L19.5759 9.86C18.8826 9.83333 18.2693 9.82 17.7359 9.82C17.4959 9.82 16.9959 9.85333 16.2359 9.92L15.8159 9.96L15.3159 11.5C15.2359 11.7933 15.1959 12 15.1959 12.12C15.1959 12.36 15.2626 12.5267 15.3959 12.62C15.5426 12.7133 15.7893 12.76 16.1359 12.76H16.9959L17.0959 12.9L16.9559 14.12C16.7693 14.1067 16.3693 14.08 15.7559 14.04C15.1426 14.0133 14.5693 14 14.0359 14C13.4759 14 12.9693 14.0067 12.5159 14.02C12.0759 14.0333 11.7826 14.0467 11.6359 14.06L11.7759 12.76C12.0826 12.7067 12.3359 12.58 12.5359 12.38C12.7359 12.18 12.9226 11.8533 13.0959 11.4L16.6759 1.26L19.7359 0.939999L19.9559 1.04C20.1559 1.8 20.5693 3.36 21.1959 5.72C21.8359 8.06667 22.3826 9.95333 22.8359 11.38C22.9826 11.86 23.1693 12.2 23.3959 12.4C23.6226 12.6 23.9626 12.72 24.4159 12.76L24.4959 12.9L24.3559 14.06C24.1826 14.0467 23.8559 14.0333 23.3759 14.02C22.8959 14.0067 22.4093 14 21.9159 14C21.2093 14 20.5159 14.02 19.8359 14.06C19.1693 14.1133 18.7426 14.1467 18.5559 14.16L18.4559 14ZM17.7359 8.28C17.8826 8.28 18.3759 8.26 19.2159 8.22L18.0359 3.76H17.7759L16.2959 8.28H17.7359ZM24.7359 13.22L31.7759 2.6L29.1759 2.76C28.5893 2.82667 28.1426 2.94 27.8359 3.1C27.5293 3.24667 27.3026 3.49333 27.1559 3.84C27.0226 4.17333 26.9293 4.66 26.8759 5.3L25.2159 5.42C25.2426 5.14 25.2959 4.54667 25.3759 3.64C25.4693 2.73333 25.5293 1.89333 25.5559 1.12L25.7559 0.919999L29.3159 1.14L35.1359 1.22L35.4759 2.02C33.0626 5.23333 30.6493 8.75333 28.2359 12.58L31.4159 12.36C32.0826 12.2933 32.5959 12.02 32.9559 11.54C33.3293 11.06 33.5959 10.3 33.7559 9.26L35.3959 9.12C35.3559 9.41333 35.2759 10.0467 35.1559 11.02C35.0359 11.98 34.9559 12.8667 34.9159 13.68L34.5759 14.06L26.7159 13.94L25.2159 14.1L24.7359 13.22ZM42.5575 14L42.6575 12.82C43.1108 12.78 43.4375 12.74 43.6375 12.7C43.8508 12.6467 43.9975 12.58 44.0775 12.5C44.1575 12.4067 44.1975 12.2733 44.1975 12.1C44.1975 11.94 44.1642 11.7067 44.0975 11.4L43.6775 9.86C42.9842 9.83333 42.3708 9.82 41.8375 9.82C41.5975 9.82 41.0975 9.85333 40.3375 9.92L39.9175 9.96L39.4175 11.5C39.3375 11.7933 39.2975 12 39.2975 12.12C39.2975 12.36 39.3642 12.5267 39.4975 12.62C39.6442 12.7133 39.8908 12.76 40.2375 12.76H41.0975L41.1975 12.9L41.0575 14.12C40.8708 14.1067 40.4708 14.08 39.8575 14.04C39.2442 14.0133 38.6708 14 38.1375 14C37.5775 14 37.0708 14.0067 36.6175 14.02C36.1775 14.0333 35.8842 14.0467 35.7375 14.06L35.8775 12.76C36.1842 12.7067 36.4375 12.58 36.6375 12.38C36.8375 12.18 37.0242 11.8533 37.1975 11.4L40.7775 1.26L43.8375 0.939999L44.0575 1.04C44.2575 1.8 44.6708 3.36 45.2975 5.72C45.9375 8.06667 46.4842 9.95333 46.9375 11.38C47.0842 11.86 47.2708 12.2 47.4975 12.4C47.7242 12.6 48.0642 12.72 48.5175 12.76L48.5975 12.9L48.4575 14.06C48.2842 14.0467 47.9575 14.0333 47.4775 14.02C46.9975 14.0067 46.5108 14 46.0175 14C45.3108 14 44.6175 14.02 43.9375 14.06C43.2708 14.1133 42.8442 14.1467 42.6575 14.16L42.5575 14ZM41.8375 8.28C41.9842 8.28 42.4775 8.26 43.3175 8.22L42.1375 3.76H41.8775L40.3975 8.28H41.8375ZM55.0575 14L55.1575 12.82C55.6108 12.78 55.9375 12.74 56.1375 12.7C56.3508 12.6467 56.4975 12.58 56.5775 12.5C56.6575 12.4067 56.6975 12.2733 56.6975 12.1C56.6975 11.94 56.6642 11.7067 56.5975 11.4L56.1775 9.86C55.4842 9.83333 54.8708 9.82 54.3375 9.82C54.0975 9.82 53.5975 9.85333 52.8375 9.92L52.4175 9.96L51.9175 11.5C51.8375 11.7933 51.7975 12 51.7975 12.12C51.7975 12.36 51.8642 12.5267 51.9975 12.62C52.1442 12.7133 52.3908 12.76 52.7375 12.76H53.5975L53.6975 12.9L53.5575 14.12C53.3708 14.1067 52.9708 14.08 52.3575 14.04C51.7442 14.0133 51.1708 14 50.6375 14C50.0775 14 49.5708 14.0067 49.1175 14.02C48.6775 14.0333 48.3842 14.0467 48.2375 14.06L48.3775 12.76C48.6842 12.7067 48.9375 12.58 49.1375 12.38C49.3375 12.18 49.5242 11.8533 49.6975 11.4L53.2775 1.26L56.3375 0.939999L56.5575 1.04C56.7575 1.8 57.1708 3.36 57.7975 5.72C58.4375 8.06667 58.9842 9.95333 59.4375 11.38C59.5842 11.86 59.7708 12.2 59.9975 12.4C60.2242 12.6 60.5642 12.72 61.0175 12.76L61.0975 12.9L60.9575 14.06C60.7842 14.0467 60.4575 14.0333 59.9775 14.02C59.4975 14.0067 59.0108 14 58.5175 14C57.8108 14 57.1175 14.02 56.4375 14.06C55.7708 14.1133 55.3442 14.1467 55.1575 14.16L55.0575 14ZM54.3375 8.28C54.4842 8.28 54.9775 8.26 55.8175 8.22L54.6375 3.76H54.3775L52.8975 8.28H54.3375ZM71.2175 14.32C70.3508 14.32 69.6242 13.7 69.0375 12.46L67.2975 8.94H65.8775L65.8375 11.2C65.8375 11.6667 65.8708 12.0067 65.9375 12.22C66.0042 12.42 66.1308 12.5533 66.3175 12.62C66.5042 12.6867 66.8242 12.7267 67.2775 12.74L67.3375 12.86L67.1575 14.08C66.9175 14.0667 66.4975 14.0533 65.8975 14.04C65.2975 14.0267 64.7442 14.02 64.2375 14.02C63.7442 14.02 63.2375 14.0333 62.7175 14.06C62.1975 14.0867 61.8575 14.1067 61.6975 14.12L61.8775 12.8C62.4375 12.7333 62.8108 12.5867 62.9975 12.36C63.1975 12.1333 63.2975 11.7333 63.2975 11.16V3.42C63.2975 3.03333 63.2508 2.77333 63.1575 2.64C63.0775 2.50667 62.9108 2.44 62.6575 2.44C62.5108 2.44 62.3708 2.44667 62.2375 2.46C62.1042 2.47333 62.0175 2.48 61.9775 2.48L61.8575 2.32L62.0375 1.12C62.2242 1.12 62.5642 1.12667 63.0575 1.14C63.5642 1.15333 64.0575 1.16 64.5375 1.16C65.0708 1.16 65.6442 1.15333 66.2575 1.14C66.8842 1.11333 67.3175 1.09333 67.5575 1.08C69.0775 1.08 70.2375 1.37333 71.0375 1.96C71.8508 2.54667 72.2575 3.39333 72.2575 4.5C72.2575 5.28667 72.0242 6.00667 71.5575 6.66C71.0908 7.31333 70.4242 7.86 69.5575 8.3L71.3175 11.16C71.6908 11.7733 72.0508 12.2133 72.3975 12.48C72.7442 12.7467 73.1308 12.88 73.5575 12.88L73.6975 13.06L73.5575 14.1L71.2175 14.32ZM67.7375 7.4C68.1775 7.21333 68.5775 6.94 68.9375 6.58C69.2975 6.20667 69.4775 5.63333 69.4775 4.86C69.4775 4.12667 69.2308 3.58 68.7375 3.22C68.2442 2.86 67.4842 2.68 66.4575 2.68C66.3242 2.68 66.2308 2.70667 66.1775 2.76C66.1375 2.81333 66.1108 2.93333 66.0975 3.12C66.0175 4.49333 65.9642 5.85333 65.9375 7.2L67.7375 7.4ZM84.6466 14.32C83.6466 11.1467 82.6066 8.02667 81.5266 4.96H81.3666C81.3666 5.10667 81.3399 5.59333 81.2866 6.42C81.2332 7.24667 81.1866 7.93333 81.1466 8.48C80.9866 10.72 80.9066 11.9267 80.9066 12.1C80.9066 12.5267 81.1199 12.74 81.5466 12.74L82.2266 12.72L82.3466 12.82L82.1266 14.08C81.0066 14.0267 80.2266 14 79.7866 14C79.4799 14 79.1066 14.02 78.6666 14.06C78.2399 14.1 77.9532 14.1333 77.8066 14.16L77.9266 12.86C78.3132 12.82 78.5932 12.7 78.7666 12.5C78.9399 12.2867 79.0666 11.9267 79.1466 11.42C79.2666 10.38 79.4266 8.82667 79.6266 6.76C79.8399 4.69333 79.9466 3.56 79.9466 3.36C79.9466 3 79.8399 2.75333 79.6266 2.62C79.4266 2.48667 79.0266 2.39333 78.4266 2.34L78.3266 2.22L78.5066 1.06C79.5999 1.12667 80.4332 1.16 81.0066 1.16C81.2999 1.16 82.0066 1.13333 83.1266 1.08C83.6599 2.96 84.3999 5.40667 85.3466 8.42L85.6866 9.46H85.8466C85.9266 9.19333 86.0332 8.86 86.1666 8.46C86.2999 8.04667 86.4399 7.60667 86.5866 7.14C87.2666 5.11333 87.9132 3.11333 88.5266 1.14C88.8066 1.14 89.0332 1.14667 89.2066 1.16L90.2666 1.18L90.8866 1.16C91.1666 1.16 91.5266 1.14667 91.9666 1.12C92.4066 1.09333 92.7266 1.06667 92.9266 1.04L93.0066 1.12L92.8866 2.32C92.3132 2.37333 91.9199 2.47333 91.7066 2.62C91.5066 2.76667 91.4066 3.02 91.4066 3.38C91.4066 3.79333 91.4599 4.84667 91.5666 6.54C91.6732 8.22 91.7799 9.67333 91.8866 10.9C91.9666 11.6333 92.0666 12.1267 92.1866 12.38C92.3199 12.62 92.5466 12.74 92.8666 12.74C93.0132 12.74 93.1332 12.7333 93.2266 12.72C93.3332 12.7067 93.3999 12.7 93.4266 12.7L93.5066 12.8L93.3266 14.06C93.1266 14.06 92.9466 14.0533 92.7866 14.04C92.1999 14.0133 91.7066 14 91.3066 14C90.9199 14 90.4066 14.02 89.7666 14.06C89.1399 14.1 88.7066 14.1333 88.4666 14.16L88.6066 12.86C89.0066 12.8067 89.2932 12.7067 89.4666 12.56C89.6399 12.4 89.7266 12.1667 89.7266 11.86C89.7266 11.8067 89.6732 10.98 89.5666 9.38C89.4199 7.28667 89.3332 5.81333 89.3066 4.96H89.1266C88.0066 8.08 86.9666 11.14 86.0066 14.14L84.6466 14.32ZM100.663 14L100.763 12.82C101.216 12.78 101.543 12.74 101.743 12.7C101.956 12.6467 102.103 12.58 102.183 12.5C102.263 12.4067 102.303 12.2733 102.303 12.1C102.303 11.94 102.27 11.7067 102.203 11.4L101.783 9.86C101.09 9.83333 100.476 9.82 99.943 9.82C99.703 9.82 99.203 9.85333 98.443 9.92L98.023 9.96L97.523 11.5C97.443 11.7933 97.403 12 97.403 12.12C97.403 12.36 97.4696 12.5267 97.603 12.62C97.7496 12.7133 97.9963 12.76 98.343 12.76H99.203L99.303 12.9L99.163 14.12C98.9763 14.1067 98.5763 14.08 97.963 14.04C97.3496 14.0133 96.7763 14 96.243 14C95.683 14 95.1763 14.0067 94.723 14.02C94.283 14.0333 93.9896 14.0467 93.843 14.06L93.983 12.76C94.2896 12.7067 94.543 12.58 94.743 12.38C94.943 12.18 95.1296 11.8533 95.303 11.4L98.883 1.26L101.943 0.939999L102.163 1.04C102.363 1.8 102.776 3.36 103.403 5.72C104.043 8.06667 104.59 9.95333 105.043 11.38C105.19 11.86 105.376 12.2 105.603 12.4C105.83 12.6 106.17 12.72 106.623 12.76L106.703 12.9L106.563 14.06C106.39 14.0467 106.063 14.0333 105.583 14.02C105.103 14.0067 104.616 14 104.123 14C103.416 14 102.723 14.02 102.043 14.06C101.376 14.1133 100.95 14.1467 100.763 14.16L100.663 14ZM99.943 8.28C100.09 8.28 100.583 8.26 101.423 8.22L100.243 3.76H99.983L98.503 8.28H99.943ZM116.823 14.32C115.956 14.32 115.23 13.7 114.643 12.46L112.903 8.94H111.483L111.443 11.2C111.443 11.6667 111.476 12.0067 111.543 12.22C111.61 12.42 111.736 12.5533 111.923 12.62C112.11 12.6867 112.43 12.7267 112.883 12.74L112.943 12.86L112.763 14.08C112.523 14.0667 112.103 14.0533 111.503 14.04C110.903 14.0267 110.35 14.02 109.843 14.02C109.35 14.02 108.843 14.0333 108.323 14.06C107.803 14.0867 107.463 14.1067 107.303 14.12L107.483 12.8C108.043 12.7333 108.416 12.5867 108.603 12.36C108.803 12.1333 108.903 11.7333 108.903 11.16V3.42C108.903 3.03333 108.856 2.77333 108.763 2.64C108.683 2.50667 108.516 2.44 108.263 2.44C108.116 2.44 107.976 2.44667 107.843 2.46C107.71 2.47333 107.623 2.48 107.583 2.48L107.463 2.32L107.643 1.12C107.83 1.12 108.17 1.12667 108.663 1.14C109.17 1.15333 109.663 1.16 110.143 1.16C110.676 1.16 111.25 1.15333 111.863 1.14C112.49 1.11333 112.923 1.09333 113.163 1.08C114.683 1.08 115.843 1.37333 116.643 1.96C117.456 2.54667 117.863 3.39333 117.863 4.5C117.863 5.28667 117.63 6.00667 117.163 6.66C116.696 7.31333 116.03 7.86 115.163 8.3L116.923 11.16C117.296 11.7733 117.656 12.2133 118.003 12.48C118.35 12.7467 118.736 12.88 119.163 12.88L119.303 13.06L119.163 14.1L116.823 14.32ZM113.343 7.4C113.783 7.21333 114.183 6.94 114.543 6.58C114.903 6.20667 115.083 5.63333 115.083 4.86C115.083 4.12667 114.836 3.58 114.343 3.22C113.85 2.86 113.09 2.68 112.063 2.68C111.93 2.68 111.836 2.70667 111.783 2.76C111.743 2.81333 111.716 2.93333 111.703 3.12C111.623 4.49333 111.57 5.85333 111.543 7.2L113.343 7.4ZM121.695 12.82C122.309 12.7667 122.749 12.6867 123.015 12.58C123.282 12.4733 123.462 12.2867 123.555 12.02C123.649 11.7533 123.695 11.3133 123.695 10.7V2.68C122.922 2.70667 122.375 2.77333 122.055 2.88C121.749 2.98667 121.535 3.20667 121.415 3.54C121.295 3.86 121.189 4.44667 121.095 5.3L119.455 5.42C119.549 4.31333 119.629 2.89333 119.695 1.16L119.915 0.939999L121.895 1.16H128.135L130.155 0.939999L130.375 1.16C130.402 2.76 130.469 4.14 130.575 5.3L128.935 5.42C128.829 4.51333 128.715 3.89333 128.595 3.56C128.489 3.22667 128.289 3.00667 127.995 2.9C127.715 2.78 127.209 2.70667 126.475 2.68C126.409 3.66667 126.349 5.00667 126.295 6.7C126.255 8.39333 126.235 9.93333 126.235 11.32C126.235 11.8133 126.322 12.1667 126.495 12.38C126.669 12.5933 126.949 12.7 127.335 12.7C127.669 12.7 128.022 12.68 128.395 12.64L128.475 12.74L128.295 14.08C126.882 14.0267 125.735 14 124.855 14C124.162 14 123.055 14.04 121.535 14.12L121.695 12.82Z" fill="#D9D9D9"/>
</svg>
